<svg version="1.2" xmlns="http://www.w3.org/2000/svg" viewBox="0 0 69 74" width="69" height="74">
	<title>client-4-svg</title>
	<style>
		.s0 { fill: #000000 } 
	</style>
	<g id="Object">
		<g id="&lt;Group&gt;">
			<g id="&lt;Group&gt;">
				<path id="&lt;Path&gt;" class="s0" d="m26.6 6.8c6.5-3.4 14.4-3.4 21.1 0.5 10.2 6.1 13.6 19.3 7.5 29.5-4 6.8-11 10.4-18.3 10.6 3.5-1.8 6.5-4.6 8.5-8 6.1-10.3 2.8-23.6-7.5-29.6-3.5-2.1-7.4-3.1-11.3-3z"/>
				<g id="&lt;Group&gt;">
					<path id="&lt;Path&gt;" class="s0" d="m15.7 18.7c0.2 2.8 0.7 5.5 1.6 8-1.2 5.2-1.2 10.8 0.3 16.3 1.2 4.1 3.1 7.7 5.8 10.9q-2.8-1.3-5.2-3.1c-2.2-2.8-3.9-6.1-4.9-9.6-2.2-7.8-1.3-15.9 2.4-22.5z"/>
					<path id="&lt;Path&gt;" class="s0" d="m18 28.6c4.5 10.6 15.1 18.1 27.3 18.1 5.8 0 11.1-1.6 15.6-4.5-5.2 8.5-14.6 14.2-25.3 14.2-3.5 0-6.8-0.6-9.9-1.7-3.3-3.3-5.7-7.4-7-11.9-1.4-4.9-1.6-9.6-0.7-14.2z"/>
					<path id="&lt;Path&gt;" class="s0" d="m12.3 41.5c0.6 2.4 1.6 4.7 2.9 6.8-5.8-5.4-9.3-13.1-9.3-21.6 0-10.7 5.6-20.1 14.1-25.3-2.7 4.4-4.3 9.6-4.4 15.2-4.5 7.2-5.8 16.1-3.3 24.9z"/>
				</g>
				<path id="&lt;Path&gt;" class="s0" d="m26.9 12.9q-7.3 19.7 12.4 26.6 7.5-19.4-12.4-26.6z"/>
			</g>
			<g id="&lt;Group&gt;">
				<path id="&lt;Compound Path&gt;" class="s0" d="m4.8 71.1q-0.8-0.4-1.4-1.2-0.4-0.8-0.4-1.8 0-1 0.4-1.8 0.6-0.8 1.4-1.3 0.8-0.4 1.9-0.4 0.8 0 1.5 0.3 0.7 0.2 1.2 0.8l-0.9 0.8q-0.7-0.8-1.8-0.8-0.7 0-1.3 0.2-0.5 0.4-0.8 0.9-0.3 0.6-0.3 1.3 0 0.6 0.3 1.2 0.3 0.6 0.8 0.8 0.6 0.3 1.3 0.3 1.1 0 1.8-0.8l0.9 0.8q-0.5 0.5-1.2 0.9-0.7 0.3-1.5 0.3-1.1 0-1.9-0.5z"/>
				<path id="&lt;Compound Path&gt;" fill-rule="evenodd" class="s0" d="m13.7 71.1q-0.9-0.4-1.3-1.2-0.5-0.8-0.5-1.8 0-1 0.5-1.8 0.4-0.8 1.3-1.3 0.8-0.4 1.8-0.4 1.1 0 1.9 0.4 0.9 0.5 1.4 1.3 0.4 0.8 0.4 1.8 0 1-0.4 1.8-0.5 0.8-1.4 1.2-0.8 0.5-1.9 0.5-1 0-1.8-0.5zm3.1-1q0.5-0.2 0.8-0.9 0.3-0.5 0.3-1.1 0-0.7-0.3-1.3-0.3-0.5-0.8-0.9-0.6-0.2-1.3-0.2-0.6 0-1.1 0.2-0.7 0.4-0.9 0.9-0.4 0.6-0.4 1.3 0 0.6 0.4 1.1 0.2 0.7 0.9 0.9 0.5 0.3 1.1 0.3 0.7 0 1.3-0.3z"/>
				<path id="&lt;Compound Path&gt;" class="s0" d="m28.8 71.5v-4.6l-2.3 3.8h-0.5l-2.3-3.7v4.5h-1.2v-6.8h1.1l2.7 4.5 2.7-4.5h0.9v6.8z"/>
				<path id="&lt;Compound Path&gt;" fill-rule="evenodd" class="s0" d="m38.1 65q0.7 0.2 1 0.8 0.3 0.5 0.3 1.3 0 0.7-0.3 1.3-0.3 0.5-1 0.8-0.6 0.3-1.5 0.3h-1.6v2h-1.2v-6.8h2.8q0.9 0 1.5 0.3zm-0.4 3.1q0.5-0.4 0.5-1 0-0.7-0.5-1-0.3-0.3-1.2-0.3h-1.5v2.6h1.5q0.9 0 1.2-0.3z"/>
				<path id="&lt;Compound Path&gt;" fill-rule="evenodd" class="s0" d="m46.8 69.9h-3.4l-0.7 1.6h-1.3l3-6.8h1.3l3 6.8h-1.3zm-0.4-1l-1.3-3-1.3 3z"/>
				<path id="&lt;Compound Path&gt;" class="s0" d="m57.6 64.7v6.8h-1l-3.7-4.7v4.7h-1.3v-6.8h1l3.7 4.5v-4.5z"/>
				<path id="&lt;Compound Path&gt;" class="s0" d="m64.3 69.1v2.4h-1.2v-2.4l-2.7-4.4h1.3l2.1 3.3 1.9-3.3h1.3z"/>
			</g>
		</g>
	</g>
</svg>