<svg version="1.2" xmlns="http://www.w3.org/2000/svg" viewBox="0 0 99 74" width="99" height="74">
	<title>client-1-svg</title>
	<style>
		.s0 { fill: #000000 } 
	</style>
	<g id="Object">
		<g id="&lt;Group&gt;">
			<g id="&lt;Group&gt;">
				<path id="&lt;Compound Path&gt;" fill-rule="evenodd" class="s0" d="m29.1 59.2h3.4q2.3 0 3.5 0.8 1.1 0.7 1.1 2.2 0 0.3-0.1 0.5 0 0.2 0 0.6-0.2 0.3-0.4 0.6-0.2 0.3-0.6 0.6-0.4 0.3-0.9 0.5 1.2 0.2 1.9 1 0.6 0.8 0.6 1.9 0 1.6-1.1 2.5-1.1 0.9-3.2 0.9h-4.2zm1.3 5.2h2.6q1.4 0 2-0.3 0.6-0.5 0.6-1.6 0-1.2-0.8-1.6-0.7-0.4-2.3-0.4h-2.1zm0 1.1v4.6h2.6q1.5 0 2.3-0.6 0.8-0.5 0.8-1.7 0-1.3-0.8-1.8-0.8-0.5-2.6-0.5z"/>
				<path id="&lt;Compound Path&gt;" fill-rule="evenodd" class="s0" d="m51.9 71.3h-1.6l-1.7-3.7q-0.7-1.5-0.9-1.9-0.5 0.1-1.3 0.1l-2.3-0.1v5.6h-1.4v-12.1c0.5 0 4.7 0 5.1 0q0.5 0 1 0 0.5 0.1 0.9 0.3 0.3 0.2 0.7 0.4 0.4 0.2 0.5 0.6 0.2 0.4 0.3 0.8 0.2 0.5 0.2 1 0 1.2-0.6 2-0.7 0.9-1.7 1.1 0 0 0.1 0.3 0.1 0.4 0.4 0.7 0.3 0.5 0.4 0.7zm-7.8-11v4.1q0.3 0 1.4 0 1 0 1.6 0 1.5 0 2.2-0.5 0.6-0.5 0.6-1.6 0-1-0.6-1.5-0.6-0.5-2-0.5z"/>
				<path id="&lt;Compound Path&gt;" fill-rule="evenodd" class="s0" d="m65 71.3l-1.4-3.7h-4.9l-1.4 3.7h-1.4l4.6-12.1h1.5l4.4 12.1zm-1.8-5q-1.7-5-1.9-5.6l-2 5.6z"/>
				<path id="&lt;Compound Path&gt;" class="s0" d="m80.9 71.3h-1.6l-6.3-9.5-0.5-0.5q0.1 1.7 0.1 3v7h-1.3v-12.1h1.6l6.3 9.6 0.4 0.6q-0.1-2.6-0.1-3.1v-7.1h1.4z"/>
				<path id="&lt;Compound Path&gt;" fill-rule="evenodd" class="s0" d="m97 65.3q0 3-1.7 4.5-1.6 1.5-4.7 1.5h-3.5v-12.1h3.3q1.5 0 2.7 0.4 1.2 0.4 2.1 1.1 0.9 0.7 1.4 1.9 0.4 1.1 0.4 2.7zm-1.5 0q0-2.5-1.4-3.6-1.2-1.2-3.7-1.2h-1.9v9.7h2.1q2.4 0 3.6-1.3 1.3-1.1 1.3-3.6z"/>
			</g>
			<g id="&lt;Group&gt;">
				<g id="&lt;Group&gt;">
					<path id="&lt;Path&gt;" class="s0" d="m42.8 34.4h7.5v15.6h-48.2v-48.2h48.2v11.5h-7.5z"/>
					<path id="&lt;Path&gt;" class="s0" d="m54.7 13.3h13.5v21.1h-13.5z"/>
				</g>
				<path id="&lt;Compound Path&gt;" fill-rule="evenodd" class="s0" d="m2.1 54.9h16.9v17h-16.9zm12.6 4.3l-8.3 8.4h8.3z"/>
			</g>
		</g>
	</g>
</svg>