<svg version="1.2" xmlns="http://www.w3.org/2000/svg" viewBox="0 0 115 73" width="115" height="73">
	<title>client-3-svg</title>
	<style>
		.s0 { fill: #000000 } 
	</style>
	<g id="Object">
		<g id="clinet-3">
			<g id="&lt;Group&gt;">
				<path id="&lt;Compound Path&gt;" fill-rule="evenodd" class="s0" d="m61.4 59.9q0.6 0.7 0.6 1.7 0 1.4-0.9 2.1-0.9 0.8-2.7 0.8h-4.7v-10.9h4.6q1.7 0 2.6 0.7 0.9 0.8 0.9 2.1 0 1-0.5 1.7-0.6 0.6-1.5 0.8 1 0.2 1.6 1zm-5.5-1.7h2q0.8 0 1.2-0.4 0.5-0.3 0.5-1 0-0.7-0.5-1.1-0.4-0.3-1.3-0.3h-1.9zm3.4 4.2q0.5-0.4 0.5-1.1 0-0.8-0.5-1.2-0.5-0.4-1.3-0.4h-2.1v3.1h2.1q0.9 0 1.3-0.4z"/>
				<path id="&lt;Compound Path&gt;" fill-rule="evenodd" class="s0" d="m70.8 64.5l-2.6-4.2h-0.9v4.2h-2.2v-10.9h4.2q1.9 0 2.9 0.9 1 1 1 2.5 0 1.2-0.7 2.1-0.7 0.8-2 1.1l2.7 4.3zm-3.5-5.7h1.8q1.8 0 1.8-1.7 0-0.8-0.4-1.2-0.4-0.5-1.4-0.5h-1.8z"/>
				<path id="&lt;Compound Path&gt;" fill-rule="evenodd" class="s0" d="m82.9 62.4h-4.5l-0.7 2.1h-2.4l4.1-10.8h2.5l3.9 10.8h-2.2zm-0.6-1.6l-1.6-4.6-1.6 4.6z"/>
				<path id="&lt;Compound Path&gt;" class="s0" d="m97.8 64.5h-2.2l-4.8-7.4v7.4h-2.2v-10.9h2.2l4.8 7.5v-7.5h2.2z"/>
				<path id="&lt;Compound Path&gt;" fill-rule="evenodd" class="s0" d="m110.3 62q-0.7 1.1-2 1.8-1.3 0.7-3 0.7h-3.9v-10.9h3.9q1.7 0 3 0.7 1.3 0.6 2 1.9 0.7 1.2 0.7 2.9 0 1.6-0.7 2.9zm-2.5-0.3q1-0.9 1-2.6 0-1.7-1-2.7-1-0.9-2.7-0.9h-1.5v7.1h1.5q1.7 0 2.7-0.9z"/>
			</g>
			<g id="&lt;Group&gt;">
				<g id="&lt;Group&gt;">
					<path id="&lt;Path&gt;" class="s0" d="m38.7 53.1c-4.4 0-8.6-1-12.4-3.2l4.8-8.3c2.3 1.3 4.9 2 7.6 2 8.4 0 15.1-6.7 15.1-15.1 0-8.4-6.7-15.2-15.1-15.2-2.7 0-5.3 0.7-7.6 2.1l-4.8-8.2c3.8-2.2 8-3.4 12.4-3.4 13.6 0 24.6 11.1 24.6 24.7 0 13.6-11 24.6-24.6 24.6z"/>
				</g>
				<g id="&lt;Group&gt;">
					<path id="&lt;Path&gt;" class="s0" d="m28.7 55.8c-5.6 0-10-4.5-10-10 0-5.5 4.4-10 10-10 5.5 0 10 4.5 10 10 0 5.5-4.5 10-10 10z"/>
				</g>
				<g id="&lt;Group&gt;">
					<path id="&lt;Path&gt;" class="s0" d="m28.1 70.4c-13.6 0-24.7-11.1-24.7-24.7 0-13.6 11.1-24.7 24.7-24.7 7.3 0 14.2 3.3 19 9.1l-7.3 6c-2.9-3.5-7.2-5.4-11.7-5.4-8.4 0-15.2 6.7-15.2 15 0 8.3 6.8 15.2 15.2 15.2 4.2 0 8.1-1.7 11-4.8l6.9 6.6c-4.7 4.8-11.2 7.7-17.9 7.7z"/>
				</g>
			</g>
		</g>
	</g>
</svg>