<svg version="1.2" xmlns="http://www.w3.org/2000/svg" viewBox="0 0 102 72" width="102" height="72">
	<title>client-7-svg</title>
	<style>
		.s0 { fill: #000000 } 
	</style>
	<g id="&lt;Group&gt;">
		<path id="&lt;Path&gt;" class="s0" d="m15.9 28.9c0-3.6 2.8-6.4 6.3-6.4 3.6 0 6.4 2.8 6.4 6.4 0 3.5-2.8 6.3-6.4 6.3-3.5 0-6.3-2.8-6.3-6.3z"/>
		<path id="&lt;Path&gt;" class="s0" d="m69.3 20.4q0 22.9-36.9 27v-27c0-10.1 8.3-18.4 18.4-18.4 10.2 0 18.5 8.3 18.5 18.4z"/>
		<path id="&lt;Compound Path&gt;" fill-rule="evenodd" class="s0" d="m28.6 37.5v18.7c0 7.1-5.7 12.8-12.8 12.8-7 0-12.8-5.7-12.8-12.8q0-15.9 25.6-18.7zm-9.4 18.7c0-1.9-1.5-3.4-3.4-3.4-1.8 0-3.3 1.5-3.3 3.4 0 1.9 1.5 3.4 3.3 3.4 1.9 0 3.4-1.5 3.4-3.4z"/>
		<g id="&lt;Group&gt;">
			<path id="&lt;Compound Path&gt;" class="s0" d="m34.8 61q-1-0.5-1.6-1.5-0.6-1-0.6-2.2 0-1.3 0.6-2.2 0.6-1 1.6-1.6 1.1-0.5 2.3-0.5 1.1 0 1.9 0.3 0.9 0.4 1.4 1.1l-1 0.9q-0.9-1-2.2-1-0.9 0-1.6 0.4-0.6 0.4-1 1.1-0.4 0.6-0.4 1.5 0 0.8 0.4 1.5 0.4 0.7 1 1 0.7 0.4 1.6 0.4 1.3 0 2.2-1l1 1q-0.5 0.7-1.4 1-0.9 0.4-1.9 0.4-1.3 0-2.3-0.6z"/>
			<path id="&lt;Compound Path&gt;" fill-rule="evenodd" class="s0" d="m43.4 61q-1.1-0.5-1.7-1.5-0.5-1-0.5-2.2 0-1.2 0.5-2.2 0.6-1 1.7-1.6 1-0.5 2.3-0.5 1.3 0 2.3 0.5 1 0.6 1.6 1.6 0.6 0.9 0.6 2.2 0 1.2-0.6 2.2-0.6 1-1.6 1.5-1 0.6-2.3 0.6-1.3 0-2.3-0.6zm3.8-1.2q0.7-0.3 1-1 0.4-0.7 0.4-1.5 0-0.9-0.4-1.5-0.3-0.7-1-1.1-0.7-0.4-1.5-0.4-0.9 0-1.5 0.4-0.7 0.4-1.1 1.1-0.4 0.6-0.4 1.5 0 0.8 0.4 1.5 0.4 0.7 1.1 1 0.6 0.4 1.5 0.4 0.8 0 1.5-0.4z"/>
			<path id="&lt;Compound Path&gt;" class="s0" d="m59.5 61.5v-5.6l-2.7 4.6h-0.7l-2.8-4.5v5.5h-1.5v-8.4h1.3l3.4 5.5 3.2-5.5h1.3v8.4z"/>
			<path id="&lt;Compound Path&gt;" fill-rule="evenodd" class="s0" d="m68.6 53.4q0.8 0.4 1.3 1.1 0.4 0.6 0.4 1.6 0 0.9-0.4 1.6-0.5 0.6-1.3 1-0.8 0.3-1.9 0.3h-1.9v2.5h-1.5v-8.4h3.4q1.1 0 1.9 0.3zm-0.4 3.9q0.5-0.4 0.5-1.2 0-0.8-0.5-1.3-0.5-0.4-1.5-0.4h-1.9v3.3h1.9q1 0 1.5-0.4z"/>
			<path id="&lt;Compound Path&gt;" fill-rule="evenodd" class="s0" d="m76.9 59.5h-4.2l-0.8 2h-1.7l3.8-8.4h1.6l3.7 8.4h-1.6zm-0.5-1.3l-1.6-3.6-1.6 3.6z"/>
			<path id="&lt;Compound Path&gt;" class="s0" d="m87.9 53.1v8.4h-1.3l-4.7-5.7v5.7h-1.5v-8.4h1.3l4.6 5.7v-5.7z"/>
			<path id="&lt;Compound Path&gt;" class="s0" d="m93.7 58.5v3h-1.5v-3l-3.3-5.4h1.6l2.5 4.1 2.5-4.1h1.5z"/>
		</g>
	</g>
</svg>