<svg version="1.2" xmlns="http://www.w3.org/2000/svg" viewBox="0 0 68 73" width="68" height="73">
	<title>client-8-svg</title>
	<style>
		.s0 { fill: #000000 } 
	</style>
	<g id="Object">
		<g id="&lt;Group&gt;">
			<g id="&lt;Group&gt;">
				<path id="&lt;Compound Path&gt;" class="s0" d="m11.7 69.5q0.1 0 0.1 0.1l0.4 0.4q-0.4 0.4-0.9 0.6-0.6 0.3-1.3 0.3-0.7 0-1.2-0.3-0.5-0.2-1-0.6-0.3-0.4-0.5-1-0.2-0.6-0.2-1.3 0-0.6 0.2-1.3 0.3-0.5 0.6-0.9 0.4-0.4 1-0.7 0.6-0.2 1.3-0.2 0.6 0 1.1 0.2 0.5 0.3 0.9 0.7l-0.3 0.3q0 0-0.1 0 0 0.1-0.1 0.1-0.1 0-0.1-0.1-0.1 0-0.2-0.1 0 0-0.1-0.1-0.1-0.1-0.3-0.1-0.2 0-0.4-0.1-0.2 0-0.5 0-0.5 0-0.8 0.1-0.5 0.2-0.7 0.5-0.3 0.3-0.5 0.7-0.2 0.5-0.2 1 0 0.6 0.2 1.1 0.2 0.4 0.5 0.7 0.2 0.4 0.6 0.5 0.4 0.1 0.8 0.1 0.3 0 0.5 0 0.2-0.1 0.4-0.1 0.2 0 0.4-0.1 0.1-0.1 0.3-0.3 0-0.1 0.1-0.1z"/>
				<path id="&lt;Compound Path&gt;" fill-rule="evenodd" class="s0" d="m21 67.7q0 0.7-0.2 1.3-0.2 0.6-0.6 1-0.4 0.4-0.9 0.6-0.6 0.3-1.3 0.3-0.6 0-1.2-0.3-0.6-0.2-0.9-0.6-0.4-0.4-0.7-1-0.1-0.6-0.1-1.3 0-0.6 0.1-1.2 0.3-0.6 0.7-1 0.3-0.4 0.9-0.7 0.6-0.2 1.2-0.2 0.7 0 1.3 0.2 0.5 0.3 0.9 0.7 0.4 0.4 0.6 1 0.2 0.6 0.2 1.2zm-0.8 0q0-0.5-0.2-1-0.1-0.4-0.4-0.7-0.3-0.3-0.7-0.5-0.4-0.1-0.9-0.1-0.4 0-0.9 0.1-0.3 0.2-0.6 0.5-0.4 0.3-0.5 0.7-0.1 0.5-0.1 1 0 0.6 0.1 1.1 0.1 0.4 0.5 0.7 0.3 0.3 0.6 0.5 0.5 0.1 0.9 0.1 0.5 0 0.9-0.1 0.4-0.2 0.7-0.5 0.3-0.3 0.4-0.7 0.2-0.5 0.2-1.1z"/>
				<path id="&lt;Compound Path&gt;" class="s0" d="m27.4 68.8q0 0.1 0.1 0.3 0-0.2 0.1-0.3 0-0.1 0.1-0.2l2.1-3.8q0-0.1 0-0.1 0.1 0 0.2 0h0.7v6.1h-0.8v-4.4q0-0.1 0-0.3 0-0.1 0-0.2l-2 3.8q-0.2 0.2-0.4 0.2h-0.1q-0.2 0-0.3-0.2l-2.1-3.8q0 0.1 0 0.2 0 0.2 0 0.3v4.4h-0.7v-6.1h0.6q0.1 0 0.2 0 0.1 0 0.1 0.1l2.1 3.8q0 0.1 0.1 0.2z"/>
				<path id="&lt;Compound Path&gt;" fill-rule="evenodd" class="s0" d="m35.2 68.5v2.3h-0.8v-6.1h1.7q0.6 0 1 0.1 0.4 0.2 0.7 0.4 0.3 0.3 0.4 0.6 0.2 0.4 0.2 0.8 0 0.4-0.2 0.7-0.2 0.4-0.4 0.7-0.3 0.2-0.7 0.3-0.4 0.2-1 0.2zm0-0.6h1q0.3 0 0.6-0.1 0.3-0.1 0.4-0.3 0.2-0.2 0.3-0.4 0.1-0.2 0.1-0.5 0-0.6-0.4-0.9-0.3-0.3-1-0.3h-1z"/>
				<path id="&lt;Compound Path&gt;" fill-rule="evenodd" class="s0" d="m46 70.8c-0.1 0-0.8 0-0.8 0q-0.1-0.1-0.1-0.2l-0.7-1.5h-2.7l-0.5 1.5q-0.1 0.1-0.1 0.2-0.1 0-0.2 0h-0.7l2.4-6.1h0.9zm-3.9-2.2h2.2l-1-2.5q0-0.2-0.1-0.6 0 0.2-0.1 0.3 0 0.2-0.1 0.3z"/>
				<path id="&lt;Compound Path&gt;" class="s0" d="m49.4 64.7q0.1 0 0.2 0.1l3.5 4.6q0-0.1 0-0.2 0-0.1 0-0.1v-4.4h0.7v6.1h-0.4q-0.1 0-0.2 0-0.1-0.1-0.1-0.1l-3.5-4.6q0 0.1 0 0.2 0 0.1 0 0.1v4.4h-0.7v-6.1h0.4q0.1 0 0.1 0z"/>
				<path id="&lt;Compound Path&gt;" class="s0" d="m59.8 68.3v2.5h-0.9v-2.5l-2.2-3.6h0.7q0.1 0 0.2 0 0 0.1 0.1 0.2l1.4 2.4q0 0.1 0.1 0.2 0.1 0.2 0.1 0.3 0.1-0.1 0.1-0.3 0.1-0.1 0.2-0.2l1.4-2.4q0-0.1 0-0.2 0.1 0 0.2 0h0.7z"/>
			</g>
			<g id="&lt;Group&gt;">
				<g id="&lt;Group&gt;">
					<path id="&lt;Path&gt;" class="s0" d="m39.9 20.4l6.1 5.9c0.1 5.9-1.5 11.6-4.6 16.6-3.3 5.2-7.9 9.3-13.4 11.7q-0.5-0.1-1-0.1c10.6-8.2 15.4-21.5 12.9-34.1z"/>
					<path id="&lt;Path&gt;" class="s0" d="m29.6 10.3l8.4 8.5c3.3 13.1-1.6 27.3-13 35.5q-0.1 0-0.1-0.1c10.2-12.7 11.5-30 4.7-43.9z"/>
					<path id="&lt;Path&gt;" class="s0" d="m57.3 36.8c-3.2 8.1-10 14.4-18.4 16.8q2.6-1.5 4.8-3.4c5.2-4.5 8.6-10.4 10-16.8z"/>
					<path id="&lt;Path&gt;" class="s0" d="m34.2 54.5q-1.7 0.2-3.4 0.2c4.9-2.6 9-6.4 11.9-11.2 3.1-4.9 4.7-10.4 4.8-16l4.9 4.9c-2 10.1-9 18.4-18.2 22.1z"/>
					<path id="&lt;Path&gt;" class="s0" d="m23 53.9c-12.2-3.1-21.2-14.1-21.2-27 0-11.9 7.5-22 17.9-26.1l5.9 6c9.3 14.2 8.7 33.4-2.6 47.1z"/>
				</g>
				<path id="&lt;Path&gt;" class="s0" d="m66 31.5c0 3.5-0.6 6.9-1.9 10l-36-36c3.2-1.2 6.5-1.9 10-1.9 15.4 0 27.9 12.5 27.9 27.9z"/>
			</g>
		</g>
	</g>
</svg>