<svg width="28" height="28" viewBox="0 0 28 28" fill="none" xmlns="http://www.w3.org/2000/svg">
<path fill-rule="evenodd" clip-rule="evenodd" d="M13.4007 5.56259C9.00893 5.87004 5.54166 9.53012 5.54166 14C5.54166 18.6714 9.32859 22.4584 14 22.4584C17.7425 22.4584 20.918 20.0272 22.0323 16.6585C21.1747 17.0128 20.2348 17.2084 19.25 17.2084C15.2229 17.2084 11.9583 13.9438 11.9583 9.91669C11.9583 8.28435 12.4951 6.77729 13.4007 5.56259ZM3.79166 14C3.79166 8.36211 8.36209 3.79169 14 3.79169C14.5245 3.79169 15.0404 3.83133 15.5446 3.90791C15.8934 3.96089 16.1763 4.21814 16.262 4.56036C16.3477 4.90257 16.2195 5.2628 15.9369 5.47395C14.5824 6.48593 13.7083 8.09912 13.7083 9.91669C13.7083 12.9773 16.1894 15.4584 19.25 15.4584C20.5733 15.4584 21.7861 14.9957 22.739 14.2224C23.0128 14.0003 23.3932 13.9641 23.7039 14.1308C24.0147 14.2975 24.195 14.6344 24.1613 14.9854C23.665 20.1614 19.3057 24.2084 14 24.2084C8.36209 24.2084 3.79166 19.6379 3.79166 14Z" fill="black"/>
</svg>
