<svg width="28" height="28" viewBox="0 0 28 28" fill="none" xmlns="http://www.w3.org/2000/svg">
<path d="M14 1.45833C14.4833 1.45833 14.875 1.85008 14.875 2.33333V3.5C14.875 3.98325 14.4833 4.375 14 4.375C13.5168 4.375 13.125 3.98325 13.125 3.5V2.33333C13.125 1.85008 13.5168 1.45833 14 1.45833Z" fill="white"/>
<path fill-rule="evenodd" clip-rule="evenodd" d="M7.29171 14C7.29171 10.2951 10.2951 7.29167 14 7.29167C17.705 7.29167 20.7084 10.2951 20.7084 14C20.7084 17.7049 17.705 20.7083 14 20.7083C10.2951 20.7083 7.29171 17.7049 7.29171 14ZM14 9.04167C11.2616 9.04167 9.04171 11.2616 9.04171 14C9.04171 16.7384 11.2616 18.9583 14 18.9583C16.7385 18.9583 18.9584 16.7384 18.9584 14C18.9584 11.2616 16.7385 9.04167 14 9.04167Z" fill="white"/>
<path d="M6.3692 5.13173C6.02749 4.79002 5.47347 4.79002 5.13176 5.13173C4.79005 5.47344 4.79005 6.02746 5.13176 6.36916L5.95672 7.19412C6.29843 7.53583 6.85245 7.53583 7.19415 7.19412C7.53586 6.85241 7.53586 6.29839 7.19415 5.95669L6.3692 5.13173Z" fill="white"/>
<path d="M26.5417 14C26.5417 14.4832 26.15 14.875 25.6667 14.875H24.5C24.0168 14.875 23.625 14.4832 23.625 14C23.625 13.5167 24.0168 13.125 24.5 13.125H25.6667C26.15 13.125 26.5417 13.5167 26.5417 14Z" fill="white"/>
<path d="M22.8683 6.36915C23.21 6.02745 23.21 5.47343 22.8683 5.13172C22.5266 4.79001 21.9726 4.79001 21.6309 5.13172L20.8059 5.95668C20.4642 6.29838 20.4642 6.8524 20.8059 7.19411C21.1476 7.53582 21.7016 7.53582 22.0434 7.19411L22.8683 6.36915Z" fill="white"/>
<path d="M14 23.625C14.4833 23.625 14.875 24.0167 14.875 24.5V25.6667C14.875 26.1499 14.4833 26.5417 14 26.5417C13.5168 26.5417 13.125 26.1499 13.125 25.6667V24.5C13.125 24.0167 13.5168 23.625 14 23.625Z" fill="white"/>
<path d="M22.0434 20.8059C21.7017 20.4642 21.1477 20.4642 20.806 20.8059C20.4643 21.1476 20.4643 21.7016 20.806 22.0433L21.631 22.8683C21.9727 23.21 22.5267 23.21 22.8684 22.8683C23.2101 22.5266 23.2101 21.9726 22.8684 21.6308L22.0434 20.8059Z" fill="white"/>
<path d="M4.37504 14C4.37504 14.4832 3.98329 14.875 3.50004 14.875H2.33337C1.85012 14.875 1.45837 14.4832 1.45837 14C1.45837 13.5167 1.85012 13.125 2.33337 13.125H3.50004C3.98329 13.125 4.37504 13.5167 4.37504 14Z" fill="white"/>
<path d="M7.19408 22.0433C7.53578 21.7016 7.53578 21.1476 7.19408 20.8059C6.85237 20.4642 6.29835 20.4642 5.95664 20.8059L5.13168 21.6308C4.78997 21.9725 4.78997 22.5266 5.13168 22.8683C5.47339 23.21 6.02741 23.21 6.36912 22.8683L7.19408 22.0433Z" fill="white"/>
</svg>
