<svg version="1.2" xmlns="http://www.w3.org/2000/svg" viewBox="0 0 96 75" width="96" height="75">
	<title>client-5-svg</title>
	<style>
		.s0 { fill: #000000 } 
	</style>
	<g id="Object">
		<g id="&lt;Group&gt;">
			<g id="&lt;Group&gt;">
				<path id="&lt;Compound Path&gt;" fill-rule="evenodd" class="s0" d="m11.3 60.7q0.5 0.6 0.5 1.5 0 1.2-0.8 1.9-0.8 0.7-2.4 0.7h-4.1v-9.6h4q1.5 0 2.2 0.6 0.8 0.7 0.8 1.9 0 0.9-0.4 1.4-0.5 0.5-1.3 0.7 0.9 0.2 1.5 0.9zm-4.8-1.5h1.6q0.8 0 1.1-0.3 0.4-0.3 0.4-0.9 0-0.6-0.4-1-0.3-0.2-1.1-0.2h-1.6zm2.9 3.6q0.4-0.3 0.4-0.9 0-0.7-0.4-1-0.5-0.4-1.2-0.4h-1.7v2.7h1.7q0.8 0 1.2-0.4z"/>
				<path id="&lt;Compound Path&gt;" fill-rule="evenodd" class="s0" d="m19.4 64.8l-2.2-3.7h-0.9v3.7h-1.8v-9.6h3.6q1.7 0 2.6 0.8 0.8 0.9 0.8 2.2 0 1.1-0.5 1.8-0.7 0.7-1.8 1l2.4 3.8zm-3.1-5.1h1.6q1.6 0 1.6-1.4 0-0.7-0.4-1.1-0.4-0.4-1.2-0.4h-1.6z"/>
				<path id="&lt;Compound Path&gt;" fill-rule="evenodd" class="s0" d="m30 62.8h-3.9l-0.6 2h-2.1l3.6-9.4h2.1l3.6 9.4h-2.1zm-0.5-1.4l-1.4-4.1-1.3 4.1z"/>
				<path id="&lt;Compound Path&gt;" class="s0" d="m43.2 64.8h-2l-4.2-6.5v6.5h-1.9v-9.6h1.9l4.2 6.6v-6.6h2z"/>
				<path id="&lt;Compound Path&gt;" fill-rule="evenodd" class="s0" d="m54 62.5q-0.5 1-1.7 1.7-1.1 0.6-2.6 0.6h-3.5v-9.6h3.5q1.5 0 2.6 0.6 1.2 0.6 1.7 1.7 0.7 1.1 0.7 2.5 0 1.4-0.7 2.5zm-2.1-0.2q0.8-0.9 0.8-2.3 0-1.5-0.8-2.3-0.9-0.8-2.4-0.8h-1.3v6.2h1.3q1.5 0 2.4-0.8z"/>
			</g>
			<path id="&lt;Path&gt;" class="s0" d="m31.2 2q24.7 9.3 24.2 22.8v22.8q-24.8-9.3-24.2-22.8z"/>
			<g id="&lt;Group&gt;">
				<path id="&lt;Path&gt;" class="s0" d="m83.7 34.8c2.9-2.4 6-4.2 9.3-5.5v7.2c-5.7 0.5-11.1 2.6-15.7 5.8 1.7-2.8 3.9-5.3 6.4-7.5z"/>
				<path id="&lt;Path&gt;" class="s0" d="m62.8 67.4q-0.2 1.6-0.2 3.1-2.4 1.1-4 1.7v-32.5q-0.7-19.1 34.4-32.5v20.7c-3.7 1.3-7.1 3.3-10.2 5.8-3.5 3.1-6.3 6.6-8.3 10.7-6.6 5.6-11 13.7-11.7 23z"/>
				<path id="&lt;Path&gt;" class="s0" d="m71.7 65.9c-2.5 1.4-4.8 2.5-6.7 3.5q0-0.9 0.1-1.9c0.5-6.7 3.2-12.9 7.3-17.7q-0.9 3.2-1.2 6.6c-0.3 3.2-0.1 6.4 0.5 9.5z"/>
				<path id="&lt;Path&gt;" class="s0" d="m74.8 47.4c4.8-4.7 11.2-7.8 18.2-8.6v0.9c0.4 10.8-10.4 19.7-20 25.4-0.5-2.8-0.6-5.6-0.5-8.5 0.3-3.2 1.1-6.3 2.3-9.2z"/>
			</g>
		</g>
	</g>
</svg>