<svg version="1.2" xmlns="http://www.w3.org/2000/svg" viewBox="0 0 73 74" width="73" height="74">
	<title>client-6-svg</title>
	<style>
		.s0 { fill: #000000 } 
	</style>
	<g id="Object">
		<g id="&lt;Group&gt;">
			<g id="&lt;Group&gt;">
				<path id="&lt;Compound Path&gt;" class="s0" d="m7.9 70.4q0.3 0 0.5-0.1 0.1 0 0.3-0.1 0.1-0.1 0.2-0.1 0.1-0.1 0.2-0.2 0.1 0 0.1 0 0.1-0.1 0.2-0.1 0 0 0.1 0.1 0.1 0 0.1 0l0.5 0.7q-0.4 0.5-1 0.8-0.7 0.2-1.5 0.2-0.7 0-1.2-0.1-0.5-0.3-0.9-0.8-0.3-0.3-0.5-0.9-0.2-0.6-0.2-1.2 0-0.6 0.2-1.1 0.1-0.7 0.4-1.1 0.2-0.4 0.6-0.8 0.3-0.3 0.7-0.6 0.4-0.3 1-0.5 0.4 0 0.9 0 0.5 0 0.7 0 0.4 0 0.7 0.2 0.2 0.1 0.4 0.3 0.3 0.3 0.4 0.4l-0.6 0.7q0 0-0.1 0.1-0.1 0-0.2 0-0.1 0-0.1 0-0.1-0.1-0.2-0.1-0.1 0-0.2-0.1-0.1 0-0.2-0.1 0-0.1-0.2-0.1-0.2-0.1-0.5-0.1-0.4 0-0.8 0.3-0.4 0.1-0.7 0.5-0.2 0.3-0.4 0.8-0.2 0.5-0.2 1.1 0 0.5 0.2 0.8 0.1 0.4 0.3 0.7 0.1 0.2 0.4 0.3 0.3 0.2 0.6 0.2z"/>
				<path id="&lt;Compound Path&gt;" fill-rule="evenodd" class="s0" d="m19.9 67.6q0 0.6-0.1 1.1-0.2 0.5-0.4 1-0.2 0.4-0.6 0.8-0.4 0.3-0.8 0.6-0.4 0.3-1 0.4-0.4 0.1-1 0.1-0.7 0-1.3-0.1-0.5-0.3-0.9-0.8-0.4-0.4-0.6-0.9-0.2-0.7-0.2-1.3 0-0.6 0.1-1.1 0.2-0.6 0.4-1 0.3-0.4 0.6-0.8 0.4-0.3 0.8-0.6 0.4-0.3 0.9-0.5 0.5 0 1.1 0 0.7 0 1.3 0.1 0.5 0.3 0.9 0.7 0.4 0.5 0.6 1 0.2 0.6 0.2 1.3zm-1.6 0q0-0.4-0.1-0.8-0.1-0.3-0.4-0.6-0.2-0.2-0.4-0.4-0.3-0.1-0.7-0.1-0.5 0-0.8 0.2-0.5 0.2-0.7 0.6-0.3 0.3-0.5 0.9-0.1 0.4-0.1 1 0 0.5 0.1 0.8 0.1 0.4 0.3 0.7 0.3 0.2 0.5 0.4 0.3 0.1 0.6 0.1 0.6 0 0.9-0.2 0.5-0.2 0.7-0.5 0.3-0.5 0.4-0.9 0.2-0.5 0.2-1.2z"/>
				<path id="&lt;Compound Path&gt;" class="s0" d="m26.5 69.1q0.1-0.1 0.2-0.3 0.1-0.2 0.2-0.4l2.2-3.7q0.1-0.2 0.1-0.2 0.2 0 0.4 0h1.2l-0.9 7.1h-1.4l0.6-4.1q0-0.2 0-0.3 0.1-0.2 0.1-0.4l-2.2 3.7q-0.1 0.2-0.2 0.2-0.2 0.1-0.4 0.1h-0.2q-0.1 0-0.3-0.1-0.1 0-0.2-0.2l-1.2-3.7q0 0.2 0 0.4 0 0.1-0.1 0.3l-0.5 4.1h-1.4l0.9-7.1h1.2q0.1 0 0.2 0 0.1 0 0.1 0 0.1 0 0.1 0.1 0.1 0 0.1 0.1l1.2 3.7q0.1 0.4 0.2 0.7z"/>
				<path id="&lt;Compound Path&gt;" fill-rule="evenodd" class="s0" d="m35.3 69.2l-0.3 2.4h-1.6l0.9-7.1h2.3q0.6 0 1 0.1 0.5 0.2 0.8 0.5 0.3 0.2 0.4 0.6 0.2 0.4 0.2 0.8 0 0.6-0.2 1.1-0.2 0.5-0.5 0.8-0.4 0.4-1 0.6-0.5 0.2-1.3 0.2zm0.4-3.5l-0.3 2.3h0.8q0.4 0 0.6-0.1 0.2-0.1 0.4-0.3 0.1-0.1 0.2-0.4 0.1-0.3 0.1-0.5 0-0.3-0.1-0.5-0.1-0.1-0.2-0.2-0.1-0.2-0.3-0.2-0.1-0.1-0.4-0.1z"/>
				<path id="&lt;Compound Path&gt;" fill-rule="evenodd" class="s0" d="m46.8 71.6h-1.3q-0.2 0-0.2-0.1-0.2-0.1-0.2-0.2l-0.3-1.4h-2.4l-0.5 1.4q0 0.1-0.2 0.2-0.2 0.1-0.3 0.1h-1.3l3.4-7.1h1.7zm-3.9-2.7h1.7l-0.3-2q-0.1-0.3-0.1-0.6-0.1-0.2-0.1-0.4-0.1 0.1-0.1 0.3-0.1 0.1-0.2 0.2 0 0.2 0 0.3-0.1 0.2-0.1 0.2z"/>
				<path id="&lt;Compound Path&gt;" class="s0" d="m51.4 64.5q0.1 0 0.2 0 0.1 0 0.1 0.1 0.1 0 0.1 0.1l2.5 4.4q0-0.1 0-0.3 0.1-0.2 0.1-0.3l0.4-4h1.4l-0.9 7.1h-0.8q-0.1 0-0.3-0.1-0.1 0-0.2-0.1l-2.5-4.5q0 0.2 0 0.3 0 0.2-0.1 0.3l-0.4 4.1h-1.4l0.9-7.1h0.9q0 0 0 0z"/>
				<path id="&lt;Compound Path&gt;" class="s0" d="m62.5 68.9l-0.3 2.7h-1.6l0.3-2.7-1.8-4.4h1.4q0.1 0 0.3 0.1 0.1 0.1 0.2 0.2l0.6 2.2q0.1 0.2 0.2 0.4 0 0.2 0.1 0.4 0.1-0.2 0.2-0.4 0.1-0.2 0.2-0.4l1.2-2.2q0.1-0.1 0.2-0.2 0.1-0.1 0.4-0.1h1.2z"/>
			</g>
			<g id="&lt;Group&gt;">
				<g id="&lt;Group&gt;">
					<path id="&lt;Path&gt;" class="s0" d="m43.4 57l-8.3-14.7 13.8-24.7 22.1 39.4z"/>
					<path id="&lt;Path&gt;" class="s0" d="m26.9 57l6.8-12.2 6.8 12.2z"/>
				</g>
				<path id="&lt;Path&gt;" class="s0" d="m43.8 20.6l-20.1 36.4h-21.8l31.1-55.8z"/>
			</g>
		</g>
	</g>
</svg>