<svg version="1.2" xmlns="http://www.w3.org/2000/svg" viewBox="0 0 128 72" width="128" height="72">
	<title>client-2-svg</title>
	<style>
		.s0 { fill: #000000 } 
	</style>
	<g id="Object">
		<g id="&lt;Group&gt;">
			<g id="&lt;Group&gt;">
				<path id="&lt;Compound Path&gt;" class="s0" d="m65.2 33.8q-0.7-0.9-0.7-2.8v-4.3q0-2 0.7-3 0.8-1 2.7-1 1.7 0 2.5 0.9 0.6 0.9 0.6 2.5v1h-2v-1q0-0.6-0.1-1 0-0.4-0.3-0.6-0.2-0.2-0.7-0.2-0.6 0-0.8 0.2-0.3 0.3-0.4 0.7 0 0.4 0 1v5.2q0 1 0.2 1.5 0.3 0.3 1 0.3 0.5 0 0.7-0.1 0.3-0.2 0.3-0.6 0.1-0.4 0.1-1.1v-1h2v0.9q0 1.7-0.6 2.6-0.7 0.9-2.5 0.9-1.9 0-2.7-1z"/>
				<path id="&lt;Compound Path&gt;" fill-rule="evenodd" class="s0" d="m73.9 33.8q-0.8-0.8-0.8-2.8v-4.5q0-1.9 0.8-2.8 0.8-1 2.6-1 1.9 0 2.7 1 0.8 0.9 0.8 2.8v4.5q0 1.9-0.8 2.8-0.8 1-2.7 1-1.8 0-2.6-1zm3.6-0.9q0.2-0.5 0.2-1.3v-5.6q0-0.8-0.2-1.3-0.2-0.4-1-0.4-0.7 0-1 0.4-0.2 0.5-0.2 1.3v5.6q0 0.8 0.2 1.3 0.3 0.3 1 0.3 0.7 0 1-0.3z"/>
				<path id="&lt;Compound Path&gt;" class="s0" d="m82.4 22.8h2.2l1.7 8.3 1.8-8.3h2.2l0.2 11.9h-1.6l-0.2-8.2-1.7 8.2h-1.3l-1.7-8.3-0.2 8.3h-1.5z"/>
				<path id="&lt;Compound Path&gt;" fill-rule="evenodd" class="s0" d="m93 22.8h3.4q3.1 0 3.1 3.4 0 3.3-3.2 3.3h-1.2v5.2h-2.1zm2.9 5.1q0.9 0 1.2-0.4 0.3-0.4 0.3-1.3 0-0.7-0.1-1.1-0.1-0.4-0.4-0.6-0.3-0.2-1-0.2h-0.8v3.6z"/>
				<path id="&lt;Compound Path&gt;" fill-rule="evenodd" class="s0" d="m102.6 22.8h2.3l2.3 11.9h-1.9l-0.5-2.7h-2l-0.5 2.7h-2.1zm2 7.8l-0.8-5-0.8 5z"/>
				<path id="&lt;Compound Path&gt;" class="s0" d="m109.2 22.8h1.5l2.9 6.8v-6.8h1.8v11.9h-1.4l-3-7.1v7.1h-1.8z"/>
				<path id="&lt;Compound Path&gt;" class="s0" d="m119.5 30.2l-2.3-7.4h1.9l1.5 4.8 1.4-4.8h2l-2.4 7.4v4.5h-2.1z"/>
			</g>
			<g id="&lt;Group&gt;">
				<path id="&lt;Compound Path&gt;" class="s0" d="m68.6 39.9v0.6h-1.8v4.8h-0.7v-4.8h-1.8v-0.6z"/>
				<path id="&lt;Compound Path&gt;" fill-rule="evenodd" class="s0" d="m74 45.3h-0.5q-0.1 0-0.2-0.1-0.1 0-0.1-0.1l-0.5-1.2h-2.4l-0.5 1.2q0 0.1-0.1 0.1 0 0.1-0.1 0.1h-0.6l2.1-5.4h0.7zm-3.5-2h2.1l-0.9-2.3q0-0.2-0.1-0.5-0.1 0.2-0.1 0.3-0.1 0.1-0.1 0.2z"/>
				<path id="&lt;Compound Path&gt;" class="s0" d="m77.8 44.9q0.2 0 0.4-0.1 0.2 0 0.3 0 0.2-0.1 0.3-0.1 0.2-0.1 0.3-0.2v-1.2h-0.8q-0.1 0-0.1 0-0.1-0.1-0.1-0.1v-0.4h1.7v2.1q-0.2 0.1-0.4 0.2-0.2 0-0.5 0.1-0.3 0.1-0.5 0.1-0.3 0.1-0.7 0.1-0.6 0-1.1-0.2-0.5-0.2-0.8-0.5-0.4-0.4-0.6-0.9-0.2-0.5-0.2-1.1 0-0.7 0.2-1.2 0.2-0.5 0.6-0.9 0.3-0.3 0.9-0.5 0.5-0.3 1.1-0.3 0.3 0 0.6 0.1 0.3 0 0.5 0.1 0.3 0.1 0.5 0.3 0.2 0.1 0.4 0.2l-0.3 0.4q0 0.1-0.1 0.1-0.1 0-0.2-0.1 0 0-0.2-0.1-0.1-0.1-0.3-0.1-0.1-0.1-0.4-0.2-0.2 0-0.5 0-0.5 0-0.8 0.1-0.4 0.2-0.7 0.5-0.2 0.3-0.4 0.7-0.1 0.4-0.1 0.9 0 0.5 0.1 0.9 0.2 0.4 0.4 0.7 0.3 0.3 0.7 0.4 0.3 0.2 0.8 0.2z"/>
				<path id="&lt;Compound Path&gt;" class="s0" d="m84.6 44.8h2.4v0.5h-3.1v-5.4h0.7z"/>
				<path id="&lt;Compound Path&gt;" class="s0" d="m88.7 39.9h0.7v5.4h-0.7z"/>
				<path id="&lt;Compound Path&gt;" class="s0" d="m92.2 39.9q0 0.1 0.1 0.1l3.1 4.2q0-0.1 0-0.2 0-0.1 0-0.2v-3.9h0.6v5.4h-0.4q0 0-0.1 0-0.1-0.1-0.1-0.1l-3.1-4.1q0 0.1 0 0.2 0 0.1 0 0.2v3.8h-0.6v-5.4h0.4q0.1 0 0.1 0z"/>
				<path id="&lt;Compound Path&gt;" class="s0" d="m101.5 39.9v0.6h-2.6v1.8h2.1v0.6h-2.1v1.9h2.6v0.5h-3.4v-5.4z"/>
			</g>
			<g id="&lt;Group&gt;">
				<path id="&lt;Compound Path&gt;" fill-rule="evenodd" class="s0" d="m59.1 14v36.9l-36.8-10.5v-36.9zm-34.9 24.9l32.8 9.2v-32.5l-32.8-9.2z"/>
				<path id="&lt;Path&gt;" class="s0" d="m42 68.1l-36.9-10.6v-36.8l36.9 10.5z"/>
				<path id="&lt;Compound Path&gt;" fill-rule="evenodd" class="s0" d="m59.1 14l-17.1 17.2-36.9-10.5 17.2-17.2zm-50 5.7l32.2 9.1 13.7-13.7-32.2-9.2z"/>
				<g id="&lt;Group&gt;">
					<path id="&lt;Path&gt;" class="s0" d="m44.1 46.6l15 4.3-15 15.1z"/>
				</g>
			</g>
		</g>
	</g>
</svg>